<svg width="32" height="33" viewBox="0 0 32 33" fill="none" xmlns="http://www.w3.org/2000/svg">
    <path d="M15.999 2.90393C8.63901 2.90393 2.65234 8.8906 2.65234 16.2506C2.65234 23.6106 8.63901 29.5973 15.999 29.5973C23.359 29.5973 29.3457 23.6106 29.3457 16.2506C29.3457 8.8906 23.359 2.90393 15.999 2.90393ZM15.999 27.2106C9.95901 27.2106 5.05234 22.3039 5.05234 16.2639C5.05234 10.2239 9.95901 5.30393 15.999 5.30393C22.039 5.30393 26.9457 10.2106 26.9457 16.2506C26.9457 22.2906 22.039 27.1973 15.999 27.1973V27.2106ZM23.199 9.51726H20.6657L16.7457 13.7439L13.5857 9.51726H8.37234L13.8657 16.8639L8.18568 22.9973H10.719L14.999 18.3839L18.4523 22.9973H23.6657L17.879 15.2639L23.199 9.51726ZM19.3857 21.1439L12.0923 11.3839H12.6657L19.959 21.1439H19.3857Z" fill="#0E0E0E"/>
</svg>
