<svg width="32" height="33" viewBox="0 0 32 33" fill="none" xmlns="http://www.w3.org/2000/svg">
    <path d="M27.934 11.3039C27.8807 10.0239 27.6673 9.15725 27.374 8.39725C27.0673 7.61058 26.654 6.94392 25.9873 6.27725C25.3207 5.61058 24.654 5.19725 23.8673 4.89058C23.1073 4.59725 22.2273 4.39725 20.9607 4.33058C19.6807 4.27725 19.2673 4.26392 16.014 4.26392C12.7607 4.26392 12.3473 4.27725 11.0673 4.33058C9.78734 4.38392 8.92068 4.59725 8.16068 4.89058C7.37401 5.19725 6.70734 5.61058 6.04068 6.27725C5.37401 6.94392 4.96068 7.61058 4.65401 8.39725C4.36068 9.15725 4.16068 10.0372 4.09401 11.3039C4.04068 12.5839 4.02734 12.9972 4.02734 16.2506C4.02734 19.5039 4.04068 19.9172 4.09401 21.1972C4.14734 22.4772 4.36068 23.3439 4.65401 24.1039C4.96068 24.8906 5.37401 25.5572 6.04068 26.2239C6.70734 26.8906 7.37401 27.3039 8.16068 27.6106C8.92068 27.9039 9.80068 28.1039 11.0673 28.1706C12.3473 28.2239 12.7607 28.2372 16.014 28.2372C19.2673 28.2372 19.6807 28.2239 20.9607 28.1706C22.2407 28.1172 23.1073 27.9039 23.8673 27.6106C24.654 27.3039 25.3207 26.8906 25.9873 26.2239C26.654 25.5572 27.0673 24.8906 27.374 24.1039C27.6673 23.3439 27.8673 22.4639 27.934 21.1972C27.9873 19.9172 28.0007 19.5039 28.0007 16.2506C28.0007 12.9972 27.9873 12.5839 27.934 11.3039ZM25.774 21.1039C25.7207 22.2772 25.5207 22.9039 25.3607 23.3306C25.1473 23.8906 24.8807 24.2906 24.4673 24.7039C24.054 25.1306 23.654 25.3839 23.094 25.5972C22.6673 25.7572 22.0407 25.9572 20.8673 26.0106C19.6007 26.0639 19.2273 26.0772 16.014 26.0772C12.8007 26.0772 12.4273 26.0772 11.1607 26.0106C9.98734 25.9572 9.36068 25.7572 8.93401 25.5972C8.37401 25.3839 7.97401 25.1172 7.56068 24.7039C7.14734 24.2906 6.88068 23.8906 6.66734 23.3306C6.50734 22.9039 6.30734 22.2772 6.25401 21.1039C6.20068 19.8372 6.18734 19.4639 6.18734 16.2506C6.18734 13.0372 6.18734 12.6639 6.25401 11.3972C6.30734 10.2239 6.50734 9.59725 6.66734 9.17058C6.88068 8.61058 7.14734 8.21058 7.56068 7.79725C7.97401 7.38392 8.37401 7.11725 8.93401 6.90392C9.36068 6.74392 9.98734 6.54392 11.1607 6.49058C12.4273 6.43725 12.8007 6.42392 16.014 6.42392C19.2273 6.42392 19.6007 6.42392 20.8673 6.49058C22.0407 6.54392 22.6673 6.74392 23.094 6.90392C23.654 7.11725 24.054 7.38392 24.4673 7.79725C24.8807 8.21058 25.1473 8.61058 25.3607 9.17058C25.5207 9.59725 25.7207 10.2239 25.774 11.3972C25.8273 12.6639 25.8407 13.0372 25.8407 16.2506C25.8407 19.4639 25.8407 19.8372 25.774 21.1039ZM16.0007 10.0906C12.6007 10.0906 9.84068 12.8506 9.84068 16.2506C9.84068 19.6506 12.6007 22.4106 16.0007 22.4106C19.4007 22.4106 22.1607 19.6506 22.1607 16.2506C22.1607 12.8506 19.4007 10.0906 16.0007 10.0906ZM16.0007 20.2506C13.7873 20.2506 12.0007 18.4639 12.0007 16.2506C12.0007 14.0372 13.7873 12.2506 16.0007 12.2506C18.214 12.2506 20.0007 14.0372 20.0007 16.2506C20.0007 18.4639 18.214 20.2506 16.0007 20.2506ZM23.8407 9.85058C23.8407 10.6506 23.2007 11.2906 22.4007 11.2906C21.6007 11.2906 20.9607 10.6506 20.9607 9.85058C20.9607 9.05058 21.6007 8.41058 22.4007 8.41058C23.2007 8.41058 23.8407 9.05058 23.8407 9.85058Z" fill="#0E0E0E"/>
</svg>
