<svg width="32" height="33" viewBox="0 0 32 33" fill="none" xmlns="http://www.w3.org/2000/svg">
    <path d="M28.3068 16.2506C28.3068 23.0479 22.7964 28.5583 15.9991 28.5583M28.3068 16.2506C28.3068 9.45321 22.7964 3.94287 15.9991 3.94287M28.3068 16.2506H3.69141M15.9991 28.5583C9.20175 28.5583 3.69141 23.0479 3.69141 16.2506M15.9991 28.5583C19.7981 28.5583 22.8777 23.0479 22.8777 16.2506C22.8777 9.45321 19.7981 3.94287 15.9991 3.94287M15.9991 28.5583C12.2001 28.5583 9.12047 23.0479 9.12047 16.2506C9.12047 9.45321 12.2001 3.94287 15.9991 3.94287M15.9991 28.5583V3.94287M3.69141 16.2506C3.69141 9.45321 9.20175 3.94287 15.9991 3.94287M27.076 10.3702C23.7803 11.1771 20.1427 11.6147 16.3136 11.6147C12.1427 11.6147 8.19055 11.0813 4.67602 10.1377M27.076 22.1309C23.7803 21.3241 20.1427 20.8865 16.3136 20.8865C12.1427 20.8865 8.19055 21.4198 4.67602 22.3634" stroke="#0E0E0E" stroke-width="1.5" stroke-linejoin="round"/>
</svg>
