<svg width="88" height="25" viewBox="0 0 88 25" fill="none" xmlns="http://www.w3.org/2000/svg">
<path fill-rule="evenodd" clip-rule="evenodd" d="M0 8.6554L7.33379 17.4513L0 23.2292V8.6554Z" fill="#E55300"/>
<path fill-rule="evenodd" clip-rule="evenodd" d="M2.95117 23.2293L8.46948 18.8402L12.2836 23.2293H2.95117Z" fill="#E55300"/>
<path fill-rule="evenodd" clip-rule="evenodd" d="M0 3.94894L1.91385 6.25071L9.78286 15.5996L12.3327 13.6691C12.3327 13.6691 10.2159 11.2996 8.79452 8.65551C6.01558 3.486 7.983 0.267456 7.983 0.267456H0V3.94894Z" fill="#E55300"/>
<path fill-rule="evenodd" clip-rule="evenodd" d="M10.9043 17.0429L13.5011 15.0035C13.5011 15.0035 15.9813 18.1076 18.8572 18.8403C22.6257 19.8004 24.2943 17.4514 24.2943 17.4514V23.2294H16.0168L17.8833 21.6951C17.8833 21.6951 16.9095 22.3123 14.5278 20.7438C13.1221 19.8181 10.9043 17.0429 10.9043 17.0429Z" fill="#E55300"/>
<path fill-rule="evenodd" clip-rule="evenodd" d="M11.144 0.25061C11.144 0.25061 10.3155 1.32359 10.9052 3.94893C11.5355 6.75506 14.0422 9.72503 14.0364 9.65854C14.0364 9.65854 14.1976 6.70949 16.0178 4.97889C19.8976 1.29008 24.2952 3.48599 24.2952 3.48599V0.267446L11.144 0.25061Z" fill="#E55300"/>
<path fill-rule="evenodd" clip-rule="evenodd" d="M24.2952 7.37474C24.2952 7.37474 21.8416 5.37659 19.7085 5.37659C16.9797 5.37659 15.4902 7.61646 15.4902 9.24124C15.4902 11.6079 16.685 12.9229 17.8842 14.063C19.6075 15.7015 21.7041 17.4687 24.2952 16.0464C24.2952 13.3545 24.2952 7.37474 24.2952 7.37474Z" fill="#E55300"/>
<path fill-rule="evenodd" clip-rule="evenodd" d="M52.8945 0.25061H58.7529C58.7529 0.25061 63.9428 7.65887 66.4933 10.7197C69.0438 13.7804 71.7892 17.2668 71.7892 17.2668C71.7892 17.2668 71.7892 7.15679 71.7892 1.90968C71.7892 1.24642 69.942 0.25061 69.942 0.25061H76.6976C76.6976 0.25061 74.4809 1.1092 74.4809 1.90968C74.4809 8.44178 74.4809 24.2506 74.4809 24.2506C74.4809 24.2506 72.354 23.1387 69.942 20.4964C67.232 17.5276 57.5918 5.54195 57.5918 5.54195C57.5918 5.54195 57.5918 17.0224 57.5918 21.2317C57.5918 22.0267 59.4391 23.2293 59.4391 23.2293H52.8945C52.8945 23.2293 54.689 22.017 54.689 21.2317C54.689 15.5744 54.689 7.15679 54.689 1.90968C54.689 1.20468 52.8945 0.25061 52.8945 0.25061Z" fill="#006685"/>
<path fill-rule="evenodd" clip-rule="evenodd" d="M80.4824 0.25061H88.0013C88.0013 0.25061 85.9823 1.15874 85.9823 1.92172C85.9823 7.2069 85.9823 15.9704 85.9823 21.2172C85.9823 22.051 88.0013 23.2293 88.0013 23.2293H80.4824C80.4824 23.2293 82.3621 22.0241 82.3621 21.2172C82.3621 14.9164 82.3621 7.2069 82.3621 1.92172C82.3621 1.18818 80.4824 0.25061 80.4824 0.25061Z" fill="#006685"/>
<path fill-rule="evenodd" clip-rule="evenodd" d="M30.7734 0.25061C30.7734 0.25061 32.7228 1.17358 32.7228 1.92172C32.7228 7.2069 32.7228 14.9164 32.7228 21.2172C32.7228 22.0374 30.7734 23.2293 30.7734 23.2293C30.7734 23.2293 40.5118 23.2293 41.9125 23.2293C42.6087 23.2293 50.4061 22.0186 50.4061 16.3102C50.4061 10.6018 44.3492 10.0672 44.3492 10.0672C44.3492 10.0672 48.039 9.09316 48.039 5.18759C48.039 0.977819 42.6087 0.25061 41.9125 0.25061C40.4657 0.25061 30.7734 0.25061 30.7734 0.25061ZM36.6911 9.68894V2.50509C36.6911 2.50509 39.9199 2.50509 41.2163 2.50509C41.9125 2.50509 44.3492 3.27697 44.3492 6.14075C44.3492 8.50121 41.9125 9.68894 41.2163 9.68894C39.638 9.68894 36.6911 9.68894 36.6911 9.68894ZM36.6911 11.5731C36.6911 11.5731 41.2163 11.5731 41.9125 11.5731C42.6087 11.5731 46.7162 12.5862 46.7162 15.9704C46.7162 19.4206 42.6087 20.6433 41.9125 20.6433C41.2163 20.6433 36.6911 20.6433 36.6911 20.6433V11.5731Z" fill="#006685"/>
</svg>
