<svg width="32" height="33" viewBox="0 0 32 33" fill="none" xmlns="http://www.w3.org/2000/svg">
    <path d="M15.999 2.90393C8.63901 2.90393 2.65234 8.8906 2.65234 16.2506C2.65234 23.6106 8.63901 29.5973 15.999 29.5973C23.359 29.5973 29.3457 23.6106 29.3457 16.2506C29.3457 8.8906 23.359 2.90393 15.999 2.90393ZM17.7723 27.0506V20.1306H20.9323L21.719 16.1839H17.7723V14.5973C17.7723 13.0106 18.559 12.2239 20.1457 12.2239H21.7323V8.27726H18.5723C15.6657 8.27726 13.8257 10.5573 13.8257 13.8106V16.1839H10.6657V20.1306H13.8257V26.9973C8.82568 25.9839 5.05234 21.5573 5.05234 16.2639C5.05234 10.2106 9.95901 5.30393 15.999 5.30393C22.039 5.30393 26.9457 10.2106 26.9457 16.2506C26.9457 21.6773 22.9723 26.1839 17.7723 27.0373V27.0506Z" fill="#0E0E0E"/>
</svg>
