<svg width="33" height="33" viewBox="0 0 33 33" fill="none" xmlns="http://www.w3.org/2000/svg">
    <path d="M27.166 14.9173H24.4993C24.4993 10.5039 20.9127 6.91728 16.4993 6.91728C12.086 6.91728 8.49935 10.5039 8.49935 14.9173H5.83268C5.83268 9.03728 10.6193 4.25061 16.4993 4.25061C22.3793 4.25061 27.166 9.03728 27.166 14.9173Z" fill="#FF8736"/>
    <path d="M8.49935 22.9173H5.16602C4.05935 22.9173 3.16602 22.0239 3.16602 20.9173V15.5839C3.16602 14.4773 4.05935 13.5839 5.16602 13.5839H8.49935V22.9173Z" fill="#FF8736"/>
    <path d="M27.8327 22.9173H24.4993V13.5839H27.8327C28.9394 13.5839 29.8327 14.4773 29.8327 15.5839V20.9173C29.8327 22.0239 28.9394 22.9173 27.8327 22.9173Z" fill="#FF8736"/>
    <path d="M25.166 28.2506H16.4993V25.5839H24.4993V22.1306H27.166V26.2506C27.166 27.3573 26.2727 28.2506 25.166 28.2506Z" fill="#FF8736"/>
</svg>
