<svg width="258" height="48" viewBox="0 0 258 48" fill="none" xmlns="http://www.w3.org/2000/svg">
    <path d="M53.252 8.79599C45.536 8.79599 39.248 15.072 39.248 22.8C39.248 30.516 45.524 36.804 53.252 36.804C60.9681 36.804 67.2561 30.528 67.2561 22.8C67.2441 15.084 60.9681 8.79599 53.252 8.79599ZM53.252 30.384C49.076 30.384 45.668 26.988 45.668 22.8C45.668 18.624 49.064 15.216 53.252 15.216C57.428 15.216 60.8361 18.612 60.8361 22.8C60.8361 26.976 57.428 30.384 53.252 30.384Z" fill="#FF8736"/>
    <path d="M121.627 11.04C119.443 9.624 116.839 8.796 114.043 8.796C106.327 8.796 100.039 15.072 100.039 22.8C100.039 30.516 106.315 36.804 114.043 36.804C121.759 36.804 128.047 30.528 128.047 22.8V0H121.627V11.04ZM114.043 30.384C109.867 30.384 106.459 26.988 106.459 22.8C106.459 18.624 109.855 15.216 114.043 15.216C118.219 15.216 121.627 18.612 121.627 22.8C121.627 26.976 118.231 30.384 114.043 30.384Z" fill="#FF8736"/>
    <path d="M138.042 9.612C134.514 9.612 131.646 12.48 131.646 16.008V36H138.042V18.396C138.042 17.076 139.122 15.996 140.442 15.996H150.042V9.612H138.042Z" fill="#FF8736"/>
    <path d="M33.0432 9.60002L27.7632 25.128L22.8432 14.568C22.3032 13.488 21.2232 12.804 20.0232 12.804C18.8232 12.804 17.7432 13.488 17.2032 14.568L11.8752 25.116L7.06317 9.60002H0.451172L8.20317 34.56C8.58717 35.808 9.67917 36.684 10.9632 36.792C12.2472 36.888 13.4592 36.204 14.0352 35.04L20.0352 22.932L26.0232 35.04C26.5632 36.132 27.6552 36.804 28.8432 36.804C28.9272 36.804 29.0112 36.804 29.0952 36.792C30.3672 36.684 31.4592 35.808 31.8552 34.56L39.6552 9.60002H33.0432Z" fill="#FF8736"/>
    <path d="M66.0433 39.204H40.4473V45.624H66.0433V39.204Z" fill="#3FD8D4"/>
    <path d="M112.52 42.156C112.316 41.736 112.04 41.412 111.692 41.196C111.344 40.98 110.936 40.872 110.48 40.872C110.12 40.872 109.808 40.944 109.544 41.076C109.28 41.208 109.076 41.376 108.92 41.58H108.872V39.192H107.66V45.744V46.392H108.692H108.824V45.744H108.872C109.052 45.972 109.28 46.152 109.544 46.284C109.808 46.416 110.12 46.488 110.48 46.488C110.936 46.488 111.344 46.38 111.692 46.164C112.04 45.948 112.316 45.624 112.52 45.204C112.724 44.784 112.82 44.268 112.82 43.68C112.82 43.092 112.724 42.588 112.52 42.156ZM111.44 44.64C111.32 44.892 111.152 45.084 110.948 45.216C110.744 45.348 110.504 45.408 110.24 45.408C109.976 45.408 109.736 45.348 109.532 45.216C109.328 45.084 109.16 44.892 109.04 44.64C108.92 44.388 108.86 44.064 108.86 43.692C108.86 43.32 108.92 42.996 109.04 42.732C109.16 42.468 109.328 42.276 109.532 42.156C109.736 42.024 109.976 41.964 110.24 41.964C110.648 41.964 110.972 42.108 111.236 42.396C111.488 42.684 111.62 43.116 111.62 43.68C111.62 44.064 111.56 44.388 111.44 44.64Z" fill="#757575"/>
    <path d="M114.403 48L115.231 45.948L113.191 40.98H114.487L115.819 44.4H115.867L117.163 40.98H118.435L115.663 48H114.403Z" fill="#757575"/>
    <path d="M121.256 46.392V39.204H124.784C125.276 39.204 125.696 39.288 126.032 39.444C126.38 39.6 126.632 39.84 126.8 40.128C126.968 40.428 127.052 40.788 127.052 41.196C127.052 41.532 126.968 41.844 126.788 42.12C126.608 42.396 126.392 42.6 126.14 42.732C126.44 42.876 126.692 43.092 126.896 43.368C127.1 43.644 127.196 43.992 127.196 44.388C127.196 44.784 127.112 45.132 126.944 45.432C126.776 45.732 126.524 45.972 126.188 46.14C125.84 46.308 125.42 46.392 124.916 46.392H121.256ZM124.544 42.084C124.7 42.084 124.82 42.06 124.928 42C125.036 41.94 125.12 41.868 125.168 41.76C125.228 41.664 125.252 41.544 125.252 41.412C125.252 41.208 125.192 41.04 125.072 40.932C124.952 40.812 124.772 40.752 124.544 40.752H123.092V42.072H124.544V42.084ZM124.64 44.832C124.796 44.832 124.916 44.808 125.024 44.748C125.132 44.688 125.216 44.616 125.264 44.52C125.324 44.424 125.348 44.304 125.348 44.16C125.348 43.956 125.288 43.8 125.168 43.68C125.048 43.56 124.868 43.5 124.64 43.5H123.092V44.82H124.64V44.832Z" fill="#757575"/>
    <path d="M128.264 46.392V39.204H130.628L132.968 43.704H133.016V39.204H134.84V46.392H132.476L130.148 41.892H130.1V46.392H128.264Z" fill="#757575"/>
    <path d="M136.172 46.392V39.204H138.044V46.392H136.172Z" fill="#757575"/>
    <path d="M83.6468 8.77202C76.1468 8.77202 70.0508 14.784 70.0508 22.176V36H76.4468V22.176C76.4468 18.336 79.7468 15.204 83.6468 15.204C87.5468 15.204 90.8468 18.336 90.8468 22.176V36H97.2428V22.176C97.2428 14.784 91.1468 8.77202 83.6468 8.77202Z" fill="#FF8736"/>
    <path d="M250.968 35.64H162.775C159.299 35.64 156.451 32.7959 156.451 29.3157L156.719 15.5551C156.719 12.0789 159.563 9.23077 163.043 9.23077H251.236C254.728 9.23077 257.56 12.0629 257.56 15.5551L257.292 29.3157C257.292 32.8079 254.46 35.64 250.968 35.64Z" fill="#E9F777"/>
    <path d="M168.953 28.6487V19.3921H170.683L170.915 20.5184H171.004C171.551 19.6502 172.33 19.2161 173.34 19.2161C173.899 19.2161 174.411 19.3569 174.874 19.6385C175.35 19.92 175.712 20.3013 175.962 20.7823H176.051C176.301 20.3013 176.687 19.92 177.211 19.6385C177.734 19.3569 178.304 19.2161 178.923 19.2161C179.577 19.2161 180.159 19.3686 180.67 19.6737C181.182 19.967 181.58 20.3952 181.865 20.9583C182.163 21.5097 182.311 22.1609 182.311 22.9117V28.6487H180.26V23.1229C180.26 22.4424 180.094 21.9262 179.761 21.5743C179.428 21.2223 178.988 21.0463 178.441 21.0463C177.942 21.0463 177.52 21.234 177.175 21.6095C176.83 21.9849 176.658 22.4894 176.658 23.1229V28.6487H174.607V23.1229C174.607 22.4424 174.44 21.9262 174.107 21.5743C173.774 21.2223 173.334 21.0463 172.788 21.0463C172.288 21.0463 171.866 21.234 171.521 21.6095C171.177 21.9849 171.004 22.4894 171.004 23.1229V28.6487H168.953Z" fill="#757575"/>
    <path d="M192.942 23.7388C192.942 24.0673 192.912 24.3782 192.853 24.6715H186.165C186.26 25.4458 186.51 26.0383 186.914 26.4489C187.318 26.8478 187.865 27.0473 188.555 27.0473C189.042 27.0473 189.434 26.9593 189.732 26.7833C190.041 26.5956 190.308 26.3199 190.534 25.9562H192.728C192.454 26.8126 191.967 27.5048 191.265 28.0328C190.564 28.5607 189.66 28.8247 188.555 28.8247C187.175 28.8247 186.082 28.4023 185.273 27.5576C184.465 26.7129 184.06 25.5338 184.06 24.0204C184.06 23.0114 184.245 22.1491 184.613 21.4335C184.982 20.7061 185.499 20.1547 186.165 19.7792C186.842 19.4038 187.627 19.2161 188.519 19.2161C189.423 19.2161 190.207 19.4214 190.873 19.832C191.539 20.2427 192.05 20.7941 192.407 21.4863C192.764 22.1667 192.942 22.9176 192.942 23.7388ZM190.909 23.1229C190.826 22.5363 190.576 22.0377 190.16 21.627C189.755 21.2047 189.209 20.9935 188.519 20.9935C187.877 20.9935 187.348 21.1871 186.932 21.5743C186.527 21.9497 186.272 22.4659 186.165 23.1229H190.909Z" fill="#757575"/>
    <path d="M194.764 28.6487V19.3921H196.494L196.726 20.5184H196.815C197.303 19.7675 198.082 19.3921 199.152 19.3921H200.24V21.3279H199.259C198.522 21.3279 197.927 21.5391 197.475 21.9614C197.035 22.372 196.815 22.9234 196.815 23.6156V28.6487H194.764Z" fill="#757575"/>
    <path d="M205.153 28.8247C203.773 28.8247 202.68 28.4023 201.871 27.5576C201.062 26.7129 200.658 25.5338 200.658 24.0204C200.658 22.507 201.062 21.3279 201.871 20.4832C202.68 19.6385 203.773 19.2161 205.153 19.2161C206.27 19.2161 207.174 19.4918 207.863 20.0432C208.565 20.5946 209.052 21.3337 209.326 22.2606H207.239C206.787 21.4511 206.092 21.0463 205.153 21.0463C204.427 21.0463 203.839 21.3044 203.387 21.8206C202.935 22.3368 202.709 23.0701 202.709 24.0204C202.709 24.9707 202.935 25.7039 203.387 26.2202C203.839 26.7364 204.427 26.9945 205.153 26.9945C206.092 26.9945 206.787 26.5897 207.239 25.7802H209.326C209.052 26.707 208.565 27.4462 207.863 27.9976C207.162 28.549 206.258 28.8247 205.153 28.8247Z" fill="#757575"/>
    <path d="M211.121 28.6487V16.33H213.172V20.4304H213.261C213.582 20.0198 213.939 19.7147 214.331 19.5153C214.735 19.3158 215.205 19.2161 215.74 19.2161C216.406 19.2161 217 19.3686 217.523 19.6737C218.046 19.967 218.457 20.3952 218.754 20.9583C219.063 21.5215 219.218 22.1902 219.218 22.9645V28.6487H217.167V23.1757C217.167 22.507 216.988 21.9849 216.632 21.6095C216.287 21.234 215.817 21.0463 215.223 21.0463C214.628 21.0463 214.135 21.2516 213.742 21.6622C213.362 22.0611 213.172 22.5656 213.172 23.1757V28.6487H211.121Z" fill="#757575"/>
    <path d="M225.032 19.2161C226.245 19.2161 227.19 19.5153 227.868 20.1136C228.546 20.7119 228.885 21.5508 228.885 22.6301V28.6487H227.155L226.923 27.5224H226.834C226.62 27.8626 226.275 28.1677 225.799 28.4375C225.335 28.6956 224.783 28.8247 224.141 28.8247C223.487 28.8247 222.91 28.7015 222.411 28.4551C221.923 28.2087 221.543 27.8685 221.269 27.4344C221.008 27.0003 220.877 26.5076 220.877 25.9562C220.877 25.1115 221.192 24.4251 221.822 23.8972C222.452 23.3575 223.332 23.0877 224.462 23.0877H226.834V22.5773C226.834 22.0729 226.667 21.6857 226.334 21.4159C226.001 21.1343 225.549 20.9935 224.979 20.9935C224.551 20.9935 224.188 21.0874 223.891 21.2751C223.594 21.4511 223.391 21.6857 223.284 21.979H221.198C221.4 21.1578 221.828 20.4949 222.482 19.9904C223.148 19.4742 223.998 19.2161 225.032 19.2161ZM224.515 27.1001C225.217 27.1001 225.775 26.9123 226.191 26.5369C226.62 26.1498 226.834 25.6511 226.834 25.0411V24.6363H224.515C223.992 24.6363 223.594 24.7478 223.32 24.9707C223.059 25.1936 222.928 25.4869 222.928 25.8506C222.928 26.226 223.065 26.5311 223.338 26.7657C223.611 26.9886 224.004 27.1001 224.515 27.1001Z" fill="#757575"/>
    <path d="M231.078 28.6487V19.3921H232.808L233.04 20.5184H233.129C233.426 20.0843 233.801 19.7616 234.253 19.5505C234.704 19.3276 235.186 19.2161 235.697 19.2161C236.375 19.2161 236.975 19.3686 237.498 19.6737C238.022 19.967 238.432 20.401 238.729 20.9759C239.026 21.5391 239.175 22.2019 239.175 22.9645V28.6487H237.124V23.1757C237.124 22.507 236.946 21.9849 236.589 21.6095C236.244 21.234 235.774 21.0463 235.18 21.0463C234.585 21.0463 234.092 21.2516 233.7 21.6622C233.319 22.0611 233.129 22.5656 233.129 23.1757V28.6487H231.078Z" fill="#757575"/>
    <path d="M244.552 28.6487C243.696 28.6487 243.03 28.4258 242.555 27.98C242.079 27.5224 241.841 26.8947 241.841 26.097V21.2751H240.361V19.3921H241.841L242.127 16.9284H243.892V19.3921H246.193V21.2751H243.892V25.8154C243.892 26.097 243.981 26.3257 244.16 26.5017C244.338 26.6777 244.57 26.7657 244.855 26.7657H246.193V28.6487H244.552Z" fill="#757575"/>
</svg>
